<mxfile host="app.diagrams.net" agent="Mozilla/5.0 (Macintosh; Intel Mac OS X 10_15_7) AppleWebKit/605.1.15 (KHTML, like Gecko) Version/17.1.2 Safari/605.1.15" version="24.8.4">
  <diagram name="Page-1" id="tZQLknMaPcjguIIjqgyP">
    <mxGraphModel dx="956" dy="551" grid="1" gridSize="10" guides="1" tooltips="1" connect="1" arrows="1" fold="1" page="1" pageScale="1" pageWidth="827" pageHeight="1169" math="0" shadow="0">
      <root>
        <mxCell id="0" />
        <mxCell id="1" parent="0" />
        <mxCell id="DboaTYH2uHODqQAO1uhh-1" value="" style="verticalLabelPosition=bottom;html=1;verticalAlign=top;align=center;strokeColor=none;fillColor=#00BEF2;shape=mxgraph.azure.user;" vertex="1" parent="1">
          <mxGeometry x="227.5" y="310" width="47.5" height="50" as="geometry" />
        </mxCell>
        <mxCell id="DboaTYH2uHODqQAO1uhh-2" value="" style="verticalLabelPosition=bottom;html=1;verticalAlign=top;align=center;strokeColor=none;fillColor=#00BEF2;shape=mxgraph.azure.user;" vertex="1" parent="1">
          <mxGeometry x="180" y="400" width="47.5" height="50" as="geometry" />
        </mxCell>
        <mxCell id="DboaTYH2uHODqQAO1uhh-3" value="" style="verticalLabelPosition=bottom;html=1;verticalAlign=top;align=center;strokeColor=none;fillColor=#00BEF2;shape=mxgraph.azure.user;" vertex="1" parent="1">
          <mxGeometry x="200" y="498" width="47.5" height="50" as="geometry" />
        </mxCell>
        <mxCell id="DboaTYH2uHODqQAO1uhh-5" value="" style="sketch=0;outlineConnect=0;fillColor=#6a00ff;strokeColor=#3700CC;dashed=0;verticalLabelPosition=bottom;verticalAlign=top;align=center;html=1;fontSize=12;fontStyle=0;aspect=fixed;pointerEvents=1;shape=mxgraph.aws4.documents;fontColor=#ffffff;" vertex="1" parent="1">
          <mxGeometry x="600" y="385" width="64" height="78" as="geometry" />
        </mxCell>
        <mxCell id="DboaTYH2uHODqQAO1uhh-7" value="Access policy = (X and Y and Z) or (A and B and C) &amp;nbsp;" style="text;html=1;align=center;verticalAlign=middle;resizable=0;points=[];autosize=1;strokeColor=none;fillColor=none;" vertex="1" parent="1">
          <mxGeometry x="440" y="472" width="300" height="30" as="geometry" />
        </mxCell>
        <mxCell id="DboaTYH2uHODqQAO1uhh-8" value="att X" style="text;html=1;align=center;verticalAlign=middle;resizable=0;points=[];autosize=1;strokeColor=none;fillColor=none;" vertex="1" parent="1">
          <mxGeometry x="265" y="330" width="50" height="30" as="geometry" />
        </mxCell>
        <mxCell id="DboaTYH2uHODqQAO1uhh-9" value="att Y" style="text;html=1;align=center;verticalAlign=middle;resizable=0;points=[];autosize=1;strokeColor=none;fillColor=none;" vertex="1" parent="1">
          <mxGeometry x="225" y="428" width="50" height="30" as="geometry" />
        </mxCell>
        <mxCell id="DboaTYH2uHODqQAO1uhh-10" value="att Z" style="text;html=1;align=center;verticalAlign=middle;resizable=0;points=[];autosize=1;strokeColor=none;fillColor=none;" vertex="1" parent="1">
          <mxGeometry x="275" y="510" width="50" height="30" as="geometry" />
        </mxCell>
        <mxCell id="DboaTYH2uHODqQAO1uhh-12" value="" style="sketch=0;pointerEvents=1;shadow=0;dashed=0;html=1;strokeColor=#d79b00;labelPosition=center;verticalLabelPosition=bottom;verticalAlign=top;outlineConnect=0;align=center;shape=mxgraph.office.security.lock_protected;fillColor=#ffe6cc;" vertex="1" parent="1">
          <mxGeometry x="570" y="385" width="21.92" height="30" as="geometry" />
        </mxCell>
        <mxCell id="DboaTYH2uHODqQAO1uhh-13" value="" style="sketch=0;pointerEvents=1;shadow=0;dashed=0;html=1;strokeColor=#82b366;labelPosition=center;verticalLabelPosition=bottom;verticalAlign=top;outlineConnect=0;align=center;shape=mxgraph.office.security.key_permissions;fillColor=#d5e8d4;rotation=-90;" vertex="1" parent="1">
          <mxGeometry x="360" y="410" width="25" height="53" as="geometry" />
        </mxCell>
        <mxCell id="DboaTYH2uHODqQAO1uhh-14" value="" style="endArrow=classic;html=1;rounded=0;exitX=0.167;exitY=1.133;exitDx=0;exitDy=0;exitPerimeter=0;" edge="1" parent="1" source="DboaTYH2uHODqQAO1uhh-8" target="DboaTYH2uHODqQAO1uhh-13">
          <mxGeometry width="50" height="50" relative="1" as="geometry">
            <mxPoint x="370" y="450" as="sourcePoint" />
            <mxPoint x="420" y="400" as="targetPoint" />
          </mxGeometry>
        </mxCell>
        <mxCell id="DboaTYH2uHODqQAO1uhh-15" value="" style="endArrow=classic;html=1;rounded=0;" edge="1" parent="1" target="DboaTYH2uHODqQAO1uhh-13">
          <mxGeometry width="50" height="50" relative="1" as="geometry">
            <mxPoint x="280" y="440" as="sourcePoint" />
            <mxPoint x="346" y="424" as="targetPoint" />
          </mxGeometry>
        </mxCell>
        <mxCell id="DboaTYH2uHODqQAO1uhh-16" value="" style="endArrow=classic;html=1;rounded=0;" edge="1" parent="1">
          <mxGeometry width="50" height="50" relative="1" as="geometry">
            <mxPoint x="285" y="500" as="sourcePoint" />
            <mxPoint x="335" y="450" as="targetPoint" />
          </mxGeometry>
        </mxCell>
        <mxCell id="DboaTYH2uHODqQAO1uhh-17" value="X and Y &amp;nbsp;and Z" style="text;html=1;align=center;verticalAlign=middle;resizable=0;points=[];autosize=1;strokeColor=none;fillColor=none;" vertex="1" parent="1">
          <mxGeometry x="330" y="442" width="100" height="30" as="geometry" />
        </mxCell>
        <mxCell id="DboaTYH2uHODqQAO1uhh-19" value="" style="endArrow=classic;html=1;rounded=0;" edge="1" parent="1">
          <mxGeometry width="50" height="50" relative="1" as="geometry">
            <mxPoint x="590" y="430" as="sourcePoint" />
            <mxPoint x="410" y="430" as="targetPoint" />
          </mxGeometry>
        </mxCell>
        <mxCell id="DboaTYH2uHODqQAO1uhh-21" value="collude" style="whiteSpace=wrap;html=1;shape=mxgraph.basic.roundRectCallout;dx=30;dy=15;size=5;boundedLbl=1;" vertex="1" parent="1">
          <mxGeometry x="260" y="280" width="70" height="40" as="geometry" />
        </mxCell>
        <mxCell id="DboaTYH2uHODqQAO1uhh-22" value="collude" style="whiteSpace=wrap;html=1;shape=mxgraph.basic.roundRectCallout;dx=30;dy=15;size=5;boundedLbl=1;" vertex="1" parent="1">
          <mxGeometry x="215" y="375" width="70" height="40" as="geometry" />
        </mxCell>
        <mxCell id="DboaTYH2uHODqQAO1uhh-23" value="collude" style="whiteSpace=wrap;html=1;shape=mxgraph.basic.roundRectCallout;dx=30;dy=15;size=5;boundedLbl=1;" vertex="1" parent="1">
          <mxGeometry x="216.25" y="458" width="70" height="40" as="geometry" />
        </mxCell>
      </root>
    </mxGraphModel>
  </diagram>
</mxfile>
